<?xml version="1.0" encoding="utf-8"?>
<!-- Generator: Adobe Illustrator 15.1.0, SVG Export Plug-In . SVG Version: 6.00 Build 0)  -->
<!DOCTYPE svg PUBLIC "-//W3C//DTD SVG 1.1//EN" "http://www.w3.org/Graphics/SVG/1.1/DTD/svg11.dtd">
<svg version="1.1" id="Layer_1" xmlns="http://www.w3.org/2000/svg" xmlns:xlink="http://www.w3.org/1999/xlink" x="0px" y="0px"
	 width="20px" height="20px" viewBox="0 0 20 20" enable-background="new 0 0 20 20" xml:space="preserve">
<path fill="#FFFFFF" d="M10.027,14.629c0.641-0.042,1.285-0.154,1.9-0.349c0.77-0.239,1.508-0.599,2.189-1.025
	c1.25-0.771,2.35-1.783,3.285-2.91c0.338-0.407,0.658-0.832,0.953-1.271c0.137-0.201,0.273-0.405,0.391-0.619
	c0.002-0.004,0.006-0.008,0.008-0.012c0.063-0.116,0.072-0.263,0.004-0.377c-0.092-0.148-0.248-0.196-0.408-0.163
	c-0.029,0.006-0.061,0.007-0.086,0.015c-0.008,0.002-0.016,0.002-0.02,0.002c-0.07,0.009-0.141,0.012-0.211,0.013
	c-0.137,0.004-0.271-0.002-0.408-0.016c-0.01,0.001-0.025-0.002-0.039-0.004c-0.029-0.001-0.061-0.006-0.09-0.012
	c-0.076-0.011-0.154-0.025-0.23-0.039c-0.156-0.032-0.309-0.066-0.461-0.108c-0.334-0.089-0.664-0.197-0.988-0.315
	c-0.174-0.063-0.348-0.127-0.52-0.194c-0.092-0.036-0.184-0.074-0.275-0.11c-0.039-0.015-0.078-0.03-0.117-0.045
	c-0.002,0-0.006-0.001-0.008-0.004c-0.004,0-0.008-0.005-0.012-0.006c-0.025-0.01-0.051-0.021-0.076-0.03
	c-0.756-0.306-1.508-0.628-2.271-0.917c-0.717-0.27-1.451-0.517-2.206-0.66c-1.34-0.252-2.852-0.139-3.995,0.669
	C5.485,6.745,4.927,7.637,4.628,8.625C4.526,8.958,4.458,9.304,4.416,9.647c-0.746-0.039-1.49-0.102-2.233-0.187
	C2.122,9.456,2.059,9.445,1.996,9.438C1.819,9.418,1.667,9.416,1.509,9.511C1.372,9.59,1.248,9.746,1.213,9.903
	c-0.033,0.161-0.022,0.342,0.071,0.485c0.085,0.133,0.227,0.272,0.395,0.292c0.914,0.114,1.831,0.196,2.749,0.244
	c2,0.146,4.104,0.098,6.281-0.088c-1.587,0.887-3.451,1.245-5.523,1.207c-0.203-0.003-0.335,0.219-0.232,0.394
	c0,0.002,0.002,0.003,0.002,0.004c0.329,0.562,0.799,1.025,1.347,1.371C7.396,14.504,8.757,14.712,10.027,14.629z M4.418,10.86
	L4.418,10.86l-0.002,0.001l0-0.001H4.418z M5.107,9.828L5.104,9.827l0-0.002C5.106,9.828,5.107,9.828,5.107,9.828z M5.109,9.821
	L5.107,9.82c0,0,0.002,0.001,0.002-0.001L5.109,9.821z"/>
</svg>
