<svg width="25" height="25" viewBox="0 0 25 25" fill="none" xmlns="http://www.w3.org/2000/svg">
<path d="M22.8026 2.97852C21.591 2.97852 20.6054 3.9642 20.6054 5.17578V6.03419C20.3761 5.95289 20.1297 5.9082 19.8729 5.9082C18.6614 5.9082 17.6757 6.89388 17.6757 8.10546V10.4288C17.3769 10.5339 17.0965 10.7053 16.8577 10.9431L14.5618 13.1901C14.5599 13.192 14.558 13.1938 14.5563 13.1957C13.6676 14.0844 12.9732 15.1236 12.4923 16.2846C12.4901 16.29 12.488 16.2954 12.4858 16.3008C12.0019 15.156 11.294 14.0949 10.3948 13.1957L8.14532 10.9463C7.9095 10.7105 7.62955 10.5351 7.32421 10.4274L7.32421 8.10546C7.32421 6.89388 6.33852 5.9082 5.12694 5.9082C4.87022 5.9082 4.62377 5.95289 4.39452 6.03419V5.17578C4.39452 3.9642 3.40884 2.97852 2.19726 2.97852C0.985684 2.97852 0 3.9642 0 5.17578L0 13.1533C0 13.8169 0.180506 14.4683 0.521887 15.0375L2.99158 19.1537C3.92772 20.7139 4.44338 22.5302 4.44338 24.2676C4.44338 24.672 4.77136 25 5.1758 25H12.5H19.8242C20.2286 25 20.5566 24.672 20.5566 24.2676C20.5566 22.5302 21.0722 20.714 22.0084 19.1537L24.4782 15.0375C24.8196 14.4685 25 13.8169 25 13.1533V5.17578C24.9998 3.9642 24.0141 2.97852 22.8026 2.97852ZM4.39441 8.10546C4.39441 7.7016 4.72297 7.37304 5.12683 7.37304C5.53069 7.37304 5.85925 7.7016 5.85925 8.10546L5.85925 10.4274C5.5539 10.5352 5.27396 10.7106 5.03813 10.9463C4.85659 11.1279 4.71361 11.3333 4.60898 11.5528C4.47063 11.4144 4.39441 11.2305 4.39441 11.0348C4.39441 10.7244 4.39441 8.41601 4.39441 8.10546ZM11.7675 23.535H5.88212C5.7575 21.766 5.18815 19.9675 4.24762 18.4L1.77793 14.2838C1.57305 13.9424 1.46484 13.5515 1.46484 13.1533L1.46484 5.17578C1.46484 4.77192 1.7934 4.44336 2.19726 4.44336C2.60112 4.44336 2.92968 4.77192 2.92968 5.17578C2.92968 5.42742 2.92968 10.7985 2.92968 11.0349V11.0368C2.92968 11.0373 2.9298 11.0379 2.9298 11.0385C2.93072 11.6241 3.15915 12.1744 3.57329 12.5887L7.53878 16.5542C7.82473 16.8401 8.28852 16.8401 8.57459 16.5542C8.86065 16.2681 8.86065 15.8044 8.57459 15.5184L6.07406 13.0178C5.78857 12.7323 5.78857 12.2677 6.07406 11.9823C6.36046 11.6958 6.82322 11.6958 7.10963 11.9823L9.35909 14.2317C10.8898 15.7624 11.7677 17.8388 11.7677 19.9286V23.535H11.7675ZM19.1405 8.10546C19.1405 7.7016 19.4691 7.37304 19.8729 7.37304C20.2768 7.37304 20.6054 7.7016 20.6054 8.10546C20.6054 8.41543 20.6054 10.7244 20.6054 11.0349C20.6054 11.2305 20.5293 11.4145 20.3909 11.5529L20.3908 11.553C20.2862 11.3336 20.1432 11.128 19.9616 10.9466C19.7221 10.707 19.4406 10.5345 19.1405 10.4289V8.10546ZM23.535 13.1533C23.535 13.5514 23.4267 13.9423 23.222 14.2838L20.7523 18.4C19.8117 19.9676 19.2424 21.7661 19.1177 23.535H13.2324V19.9284C13.2324 17.7775 14.0695 15.7556 15.5895 14.2341L17.8847 11.9876C17.8866 11.9857 17.8885 11.9839 17.8903 11.982C18.1759 11.6964 18.6403 11.6964 18.9258 11.982C19.2122 12.2684 19.2122 12.7312 18.9258 13.0176L16.4253 15.5181C16.1392 15.8042 16.1392 16.2679 16.4253 16.5539C16.7112 16.84 17.175 16.84 17.4611 16.5539L21.4266 12.5884C21.8406 12.1744 22.0689 11.6242 22.0701 11.0388C22.0701 11.0383 22.0702 11.0376 22.0702 11.0369V11.0348C22.0702 10.8015 22.0702 5.42893 22.0702 5.17566C22.0702 4.7718 22.3988 4.44324 22.8026 4.44324C23.2065 4.44324 23.535 4.7718 23.535 5.17566V13.1533Z" fill="white"/>
<path d="M15.0351 0C14.0272 0 13.1522 0.461487 12.4998 1.33561C11.8473 0.461487 10.9723 0 9.96449 0C8.06819 0 6.69678 1.5734 6.69678 3.4846C6.69678 5.92843 9.0004 7.45782 12.02 10.075C12.1577 10.1943 12.3287 10.254 12.4998 10.254C12.6708 10.254 12.8419 10.1943 12.9795 10.075C16.0015 7.45598 18.3028 5.92762 18.3028 3.4846C18.3028 1.57213 16.9302 0 15.0351 0ZM12.4998 8.55542C9.83561 6.28031 8.16162 5.06943 8.16162 3.48448C8.16162 2.33307 8.93665 1.46473 9.96449 1.46473C11.3011 1.46473 11.7752 3.05984 11.7948 3.12832C11.8838 3.44383 12.1712 3.66372 12.4993 3.66372C12.8285 3.66372 13.1168 3.44568 13.2047 3.12844C13.2242 3.06053 13.6981 1.46484 15.0351 1.46484C16.0629 1.46484 16.8379 2.33307 16.8379 3.4846C16.8379 5.07012 15.1625 6.28147 12.4998 8.55542Z" fill="#020D19"/>
</svg>
