<svg width="26" height="25" viewBox="0 0 26 25" fill="none" xmlns="http://www.w3.org/2000/svg">
<path d="M9.60864 19.2686V24.1081C9.60864 24.4462 9.82568 24.7457 10.1471 24.8521C10.2274 24.8782 10.3098 24.8907 10.3912 24.8907C10.6354 24.8907 10.8712 24.7759 11.0215 24.5714L13.8524 20.719L9.60864 19.2686Z" fill="currentColor"/>
<path d="M25.1927 1.03576C24.9527 0.865674 24.6376 0.842718 24.3767 0.979412L0.898832 13.2401C0.621272 13.3851 0.457449 13.6815 0.480405 13.9935C0.504404 14.3065 0.712053 14.5736 1.00735 14.6748L7.5342 16.9058L21.4341 5.02073L10.6781 17.9795L21.6167 21.7182C21.6981 21.7453 21.7837 21.7599 21.8693 21.7599C22.0112 21.7599 22.152 21.7213 22.2762 21.6462C22.4745 21.5252 22.6091 21.3217 22.6435 21.0932L25.513 1.78914C25.5558 1.49697 25.4327 1.20689 25.1927 1.03576Z" fill="currentColor"/>
</svg>
