<?xml version="1.0" encoding="utf-8"?>
<!-- Generator: Adobe Illustrator 15.1.0, SVG Export Plug-In . SVG Version: 6.00 Build 0)  -->
<!DOCTYPE svg PUBLIC "-//W3C//DTD SVG 1.1//EN" "http://www.w3.org/Graphics/SVG/1.1/DTD/svg11.dtd">
<svg version="1.1" id="Layer_1" xmlns="http://www.w3.org/2000/svg" xmlns:xlink="http://www.w3.org/1999/xlink" x="0px" y="0px"
	 width="59px" height="59px" viewBox="0 0 59 59" enable-background="new 0 0 59 59" xml:space="preserve">
<path fill="#01712D" d="M11.472,42.934c-2.417-2.659-3.867-5.559-3.867-10.393c0-8.458,6.042-15.95,14.5-19.816l2.175,3.142
	c-7.975,4.35-9.667,9.908-10.15,13.533c1.208-0.725,2.9-0.966,4.592-0.725c4.35,0.483,7.733,3.866,7.733,8.458
	c0,2.176-0.967,4.35-2.417,6.042c-1.691,1.691-3.625,2.417-6.042,2.417C15.339,45.592,12.922,44.383,11.472,42.934z M35.639,42.934
	c-2.416-2.659-3.867-5.559-3.867-10.393c0-8.458,6.043-15.95,14.5-19.816l2.176,3.142c-7.975,4.35-9.667,9.908-10.15,13.533
	c1.209-0.725,2.9-0.966,4.592-0.725c4.35,0.483,7.733,3.866,7.733,8.458c0,2.176-0.967,4.35-2.417,6.042
	c-1.449,1.691-3.625,2.417-6.041,2.417C39.506,45.592,37.089,44.383,35.639,42.934z"/>
</svg>
