<?xml version="1.0" encoding="utf-8"?>
<!-- Generator: Adobe Illustrator 15.1.0, SVG Export Plug-In . SVG Version: 6.00 Build 0)  -->
<!DOCTYPE svg PUBLIC "-//W3C//DTD SVG 1.1//EN" "http://www.w3.org/Graphics/SVG/1.1/DTD/svg11.dtd">
<svg version="1.1" id="Layer_1" xmlns="http://www.w3.org/2000/svg" xmlns:xlink="http://www.w3.org/1999/xlink" x="0px" y="0px"
	 width="21.791px" height="13.939px" viewBox="0.042 3.53 21.791 13.939" enable-background="new 0.042 3.53 21.791 13.939"
	 xml:space="preserve">
<g>
	<path fill="#01712D" d="M5.305,3.531C4.371,3.545,3.566,3.65,2.896,3.938c-0.67,0.287-1.271,0.919-1.271,1.701v3.133
		c-0.972,0.92-1.582,2.216-1.582,3.65c0,2.779,2.277,5.048,5.065,5.048c0.971,0,1.855-0.292,2.609-0.775h7.738
		c0.427,0.469,1.034,0.775,1.714,0.775c0.681,0,1.288-0.305,1.717-0.775h0.525c1.313,0,2.422-1.046,2.422-2.353v-1.595
		c0-2.036-1.383-3.736-3.236-5.071c-1.854-1.334-4.253-2.365-6.647-3.075C9.555,3.893,7.174,3.505,5.305,3.531z M5.326,5.081
		c1.629-0.022,3.913,0.332,6.181,1.004c2.269,0.672,4.535,1.664,6.179,2.847c1.354,0.973,2.227,2.035,2.495,3.117H10.098
		c-0.202-2.596-2.334-4.673-4.99-4.673c-0.683,0-1.334,0.137-1.929,0.384V5.639c0-0.106-0.019-0.127,0.332-0.278
		C3.861,5.211,4.512,5.092,5.326,5.081z M5.107,8.925c1.948,0,3.512,1.556,3.512,3.497c0,1.942-1.564,3.498-3.512,3.498
		c-1.949,0-3.511-1.556-3.511-3.498C1.597,10.481,3.158,8.925,5.107,8.925z M5.107,11.647c-0.05,0-0.101,0.006-0.151,0.016
		c-0.051,0.01-0.099,0.024-0.146,0.045c-0.046,0.019-0.092,0.042-0.134,0.07c-0.043,0.029-0.082,0.061-0.118,0.097
		c-0.036,0.036-0.068,0.074-0.096,0.116c-0.029,0.043-0.053,0.088-0.071,0.135c-0.02,0.047-0.036,0.096-0.045,0.146
		c-0.01,0.049-0.015,0.101-0.015,0.15c0,0.052,0.005,0.102,0.015,0.152c0.009,0.05,0.025,0.098,0.045,0.146
		c0.019,0.046,0.042,0.091,0.071,0.134c0.028,0.04,0.061,0.08,0.096,0.116c0.036,0.037,0.075,0.068,0.118,0.097
		c0.042,0.028,0.088,0.051,0.134,0.071c0.047,0.02,0.096,0.034,0.146,0.044c0.05,0.011,0.101,0.015,0.151,0.015
		c0.052,0,0.102-0.004,0.152-0.015c0.05-0.01,0.098-0.024,0.146-0.044c0.047-0.021,0.092-0.043,0.133-0.071
		c0.043-0.028,0.082-0.06,0.119-0.097c0.036-0.036,0.067-0.076,0.096-0.116c0.029-0.043,0.053-0.088,0.072-0.134
		c0.02-0.048,0.035-0.096,0.044-0.146c0.009-0.051,0.015-0.101,0.015-0.152c0-0.05-0.005-0.102-0.015-0.15
		c-0.01-0.05-0.025-0.099-0.044-0.146c-0.019-0.047-0.043-0.092-0.072-0.135c-0.029-0.042-0.06-0.08-0.096-0.116
		c-0.037-0.036-0.076-0.067-0.119-0.097c-0.042-0.028-0.086-0.052-0.133-0.07c-0.047-0.021-0.096-0.035-0.146-0.045
		C5.209,11.653,5.159,11.647,5.107,11.647z M9.934,13.597h10.345v0.745c0,0.438-0.364,0.805-0.867,0.805H9.271
		C9.568,14.676,9.795,14.153,9.934,13.597z"/>
</g>
</svg>
