<?xml version="1.0" encoding="utf-8"?>
<!-- Generator: Adobe Illustrator 15.1.0, SVG Export Plug-In . SVG Version: 6.00 Build 0)  -->
<!DOCTYPE svg PUBLIC "-//W3C//DTD SVG 1.1//EN" "http://www.w3.org/Graphics/SVG/1.1/DTD/svg11.dtd">
<svg version="1.1" id="Layer_1" xmlns="http://www.w3.org/2000/svg" xmlns:xlink="http://www.w3.org/1999/xlink" x="0px" y="0px"
	 width="51px" height="51px" viewBox="0 0 51 51" enable-background="new 0 0 51 51" xml:space="preserve">
<circle fill="#FFFFFF" cx="25.813" cy="25.813" r="25"/>
<g>
	<path fill="#01712D" d="M17.455,15.547c-1.334,0.02-2.484,0.169-3.442,0.58c-0.956,0.41-1.816,1.313-1.816,2.43v4.474
		c-1.388,1.315-2.26,3.167-2.26,5.214c0,3.97,3.252,7.21,7.236,7.21c1.387,0,2.65-0.418,3.728-1.107h11.052
		c0.609,0.67,1.478,1.107,2.449,1.107s1.84-0.436,2.451-1.107h0.75c1.876,0,3.46-1.494,3.46-3.361v-2.277
		c0-2.907-1.976-5.336-4.623-7.242c-2.647-1.907-6.073-3.378-9.494-4.392C23.525,16.062,20.124,15.509,17.455,15.547z M17.485,17.76
		c2.328-0.032,5.588,0.474,8.828,1.435c3.241,0.96,6.479,2.376,8.826,4.065c1.934,1.392,3.18,2.907,3.564,4.453H24.301
		c-0.29-3.708-3.333-6.675-7.128-6.675c-0.976,0-1.905,0.196-2.755,0.548v-3.029c0-0.152-0.026-0.182,0.474-0.397
		C15.393,17.945,16.322,17.776,17.485,17.76z M17.173,23.25c2.783,0,5.016,2.224,5.016,4.996c0,2.774-2.233,4.997-5.016,4.997
		c-2.784,0-5.015-2.223-5.015-4.997C12.158,25.473,14.389,23.25,17.173,23.25z M17.173,27.14c-0.072,0-0.145,0.007-0.216,0.022
		c-0.072,0.014-0.141,0.033-0.208,0.063c-0.067,0.027-0.132,0.061-0.192,0.102c-0.061,0.041-0.117,0.086-0.168,0.138
		c-0.051,0.052-0.097,0.106-0.137,0.167c-0.041,0.061-0.076,0.125-0.103,0.191c-0.028,0.067-0.05,0.137-0.064,0.207
		c-0.014,0.071-0.021,0.145-0.021,0.216c0,0.073,0.008,0.146,0.021,0.218c0.014,0.07,0.036,0.139,0.064,0.207
		c0.027,0.066,0.062,0.131,0.103,0.191c0.04,0.059,0.086,0.115,0.137,0.166c0.052,0.053,0.107,0.098,0.168,0.139
		c0.06,0.041,0.125,0.072,0.192,0.102c0.067,0.027,0.136,0.049,0.208,0.063c0.072,0.016,0.144,0.021,0.216,0.021
		c0.074,0,0.146-0.006,0.217-0.021c0.071-0.014,0.14-0.035,0.208-0.063c0.067-0.029,0.131-0.061,0.191-0.102
		c0.061-0.041,0.117-0.086,0.169-0.139c0.052-0.051,0.097-0.107,0.137-0.166c0.041-0.061,0.075-0.125,0.104-0.191
		c0.027-0.068,0.048-0.137,0.062-0.207c0.014-0.072,0.022-0.145,0.022-0.218c0-0.071-0.008-0.145-0.022-0.216
		c-0.014-0.07-0.035-0.14-0.062-0.207c-0.028-0.066-0.063-0.131-0.104-0.191s-0.085-0.115-0.137-0.167s-0.108-0.097-0.169-0.138
		c-0.06-0.041-0.124-0.074-0.191-0.102c-0.068-0.029-0.137-0.049-0.208-0.063C17.319,27.146,17.247,27.14,17.173,27.14z
		 M24.066,29.924h14.776v1.063c0,0.625-0.521,1.15-1.24,1.15H23.119C23.544,31.465,23.868,30.719,24.066,29.924z"/>
</g>
</svg>
